<?xml version="1.0" encoding="UTF-8"?>
<svg width="16px" height="17px" viewBox="0 0 16 17" version="1.1" xmlns="http://www.w3.org/2000/svg" xmlns:xlink="http://www.w3.org/1999/xlink">
    <!-- Generator: Sketch 47.1 (45422) - http://www.bohemiancoding.com/sketch -->
    <title>icons/line/from</title>
    <desc>Created with Sketch.</desc>
    <defs></defs>
    <g id="Symbols" stroke="none" stroke-width="1" fill="none" fill-rule="evenodd">
        <g id="icons/line/from" fill="#74717D" fill-rule="nonzero">
            <path d="M3,2 C1.8954305,2 1,2.8954305 1,4 L1,14 C1,15.1045695 1.8954305,16 3,16 L13,16 C14.1045695,16 15,15.1045695 15,14 L15,4 C15,2.8954305 14.1045695,2 13,2 L3,2 Z M3,1 L13,1 C14.6568542,1 16,2.34314575 16,4 L16,14 C16,15.6568542 14.6568542,17 13,17 L3,17 C1.34314575,17 0,15.6568542 0,14 L0,4 C-2.22044605e-16,2.34314575 1.34314575,1 3,1 Z M4,0 L5,0 L5,3 L4,3 L4,0 Z M0,6 L0,5 L16,5 L16,6 L0,6 Z M3,8 L3,10 L4,10 L4,8 L3,8 Z M9,12 L9,14 L10,14 L10,12 L9,12 Z M12,8 L12,10 L13,10 L13,8 L12,8 Z M3,12 L3,14 L4,14 L4,12 L3,12 Z M6,12 L6,14 L7,14 L7,12 L6,12 Z M9,8 L9,10 L10,10 L10,8 L9,8 Z M12,12 L13,12 L13,14 L12,14 L12,12 Z M11,0 L12,0 L12,3 L11,3 L11,0 Z M6.5,10 C6.70342712,10 7,9.6045695 7,9 C7,8.3954305 6.70342712,8 6.5,8 C6.29657288,8 6,8.3954305 6,9 C6,9.6045695 6.29657288,10 6.5,10 Z M6.5,11 C5.67157288,11 5,10.1045695 5,9 C5,7.8954305 5.67157288,7 6.5,7 C7.32842712,7 8,7.8954305 8,9 C8,10.1045695 7.32842712,11 6.5,11 Z"></path>
        </g>
    </g>
</svg>