<?xml version="1.0" encoding="UTF-8"?>
<svg width="13px" height="16px" viewBox="0 0 13 16" version="1.1" xmlns="http://www.w3.org/2000/svg" xmlns:xlink="http://www.w3.org/1999/xlink">
    <!-- Generator: Sketch 47.1 (45422) - http://www.bohemiancoding.com/sketch -->
    <title>icons/line/seat</title>
    <desc>Created with Sketch.</desc>
    <defs></defs>
    <g id="Symbols" stroke="none" stroke-width="1" fill="none" fill-rule="evenodd">
        <g id="icons/line/seat" fill="#74717D" fill-rule="nonzero">
            <path d="M7,13 L7,15 L10,15 L10,16 L3,16 L3,15 L6,15 L6,13 L0,13 L0,11 C0,9.8954305 0.8954305,9 2,9 L2,3 C2,1.34314575 3.34314575,0 5,0 L8,0 C9.65685425,0 11,1.34314575 11,3 L11,9 C12.1045695,9 13,9.8954305 13,11 L13,13 L7,13 Z M12,12 L12,11 C12,10.4477153 11.5522847,10 11,10 L2,10 C1.44771525,10 1,10.4477153 1,11 L1,12 L12,12 Z M0,5 L1,5 L1,13 L0,13 L0,5 Z M12,5 L13,5 L13,13 L12,13 L12,5 Z M10,9 L10,3 C10,1.8954305 9.1045695,1 8,1 L5,1 C3.8954305,1 3,1.8954305 3,3 L3,9 L10,9 Z"></path>
        </g>
    </g>
</svg>