<?xml version="1.0" encoding="UTF-8"?>
<svg width="17px" height="17px" viewBox="0 0 17 17" version="1.1" xmlns="http://www.w3.org/2000/svg" xmlns:xlink="http://www.w3.org/1999/xlink">
    <!-- Generator: Sketch 47.1 (45422) - http://www.bohemiancoding.com/sketch -->
    <title>icons/line/schedule</title>
    <desc>Created with Sketch.</desc>
    <defs></defs>
    <g id="Symbols" stroke="none" stroke-width="1" fill="none" fill-rule="evenodd">
        <g id="icons/line/schedule" fill="#74717D" fill-rule="nonzero">
            <path d="M9,8 L12,8 L12,9 L8,9 L8,8.5 L8,4 L9,4 L9,8 Z M8.5,17 C3.80557963,17 0,13.1944204 0,8.5 C0,3.80557963 3.80557963,0 8.5,0 C13.1944204,0 17,3.80557963 17,8.5 C17,13.1944204 13.1944204,17 8.5,17 Z M8.5,16 C12.6421356,16 16,12.6421356 16,8.5 C16,4.35786438 12.6421356,1 8.5,1 C4.35786438,1 1,4.35786438 1,8.5 C1,12.6421356 4.35786438,16 8.5,16 Z M8.5,15 C4.91014913,15 2,12.0898509 2,8.5 C2,4.91014913 4.91014913,2 8.5,2 C12.0898509,2 15,4.91014913 15,8.5 C15,12.0898509 12.0898509,15 8.5,15 Z M8.5,14 C11.5375661,14 14,11.5375661 14,8.5 C14,5.46243388 11.5375661,3 8.5,3 C5.46243388,3 3,5.46243388 3,8.5 C3,11.5375661 5.46243388,14 8.5,14 Z"></path>
        </g>
    </g>
</svg>