<?xml version="1.0" encoding="UTF-8"?>
<svg width="12px" height="12px" viewBox="0 0 12 12" version="1.1" xmlns="http://www.w3.org/2000/svg" xmlns:xlink="http://www.w3.org/1999/xlink">
    <!-- Generator: Sketch 47.1 (45422) - http://www.bohemiancoding.com/sketch -->
    <title>icons/close/1</title>
    <desc>Created with Sketch.</desc>
    <defs></defs>
    <g id="Symbols" stroke="none" stroke-width="1" fill="none" fill-rule="evenodd">
        <g id="icons/close/1" fill="#74717D">
            <path d="M6,4.99279966 L1.21579837,0.208598021 C0.93766767,-0.0695326738 0.486728716,-0.0695326738 0.208598021,0.208598021 L0.208598021,0.208598021 L0.208598021,0.208598021 C-0.0695326738,0.486728716 -0.0695326738,0.93766767 0.208598021,1.21579837 L4.99279966,6 L0.208598021,10.7842016 C-0.0695326738,11.0623323 -0.0695326738,11.5132713 0.208598021,11.791402 C0.486728716,12.0695327 0.93766767,12.0695327 1.21579837,11.791402 L1.21579837,11.791402 L6,7.00720034 L10.7842016,11.791402 L10.7842016,11.791402 C11.0623323,12.0695327 11.5132713,12.0695327 11.791402,11.791402 C12.0695327,11.5132713 12.0695327,11.0623323 11.791402,10.7842016 L7.00720034,6 L11.791402,1.21579837 C12.0695327,0.93766767 12.0695327,0.486728716 11.791402,0.208598021 L11.791402,0.208598021 L11.791402,0.208598021 C11.5132713,-0.0695326738 11.0623323,-0.0695326738 10.7842016,0.208598021 L6,4.99279966 Z"></path>
        </g>
    </g>
</svg>