<?xml version="1.0" encoding="UTF-8"?>
<svg width="21px" height="21px" viewBox="0 0 21 21" version="1.1" xmlns="http://www.w3.org/2000/svg" xmlns:xlink="http://www.w3.org/1999/xlink">
    <!-- Generator: Sketch 47.1 (45422) - http://www.bohemiancoding.com/sketch -->
    <title>icons/weather/pressure</title>
    <desc>Created with Sketch.</desc>
    <defs></defs>
    <g id="Symbols" stroke="none" stroke-width="1" fill="none" fill-rule="evenodd">
        <g id="icons/weather/pressure" fill="#5CCA55" fill-rule="nonzero">
            <path d="M10.5,0 C4.71011133,0 0,4.71035742 0,10.5 C0,16.2896426 4.71011133,21 10.5,21 C16.2898887,21 21,16.2896426 21,10.5 C21,4.71035742 16.2898887,0 10.5,0 Z M15.9876035,15.9876035 C15.7200996,16.2551074 15.2868105,16.2551074 15.0192656,15.9876035 L14.0509277,15.0192656 C13.7834648,14.7520078 13.7834648,14.3182266 14.0509277,14.0509277 C14.3183906,13.7834648 14.7517617,13.7834648 15.0192656,14.0509277 L15.4780254,14.5094414 C16.2489551,13.5549668 16.718748,12.4078008 16.8479063,11.1847148 L16.2065039,11.1847148 C15.8284629,11.1847148 15.521707,10.8782051 15.521707,10.499918 C15.521707,10.1216309 15.8284629,9.81512109 16.2065039,9.81512109 L16.8500801,9.81512109 C16.7210039,8.59203516 16.2472734,7.44650977 15.4762617,6.49199414 L12.516,9.45225586 C12.6806367,9.76754297 12.7826016,10.1203184 12.7826016,10.499918 C12.7826016,11.7584414 11.7585234,12.7825195 10.5,12.7825195 C9.24147656,12.7825195 8.21739844,11.7584414 8.21739844,10.499918 C8.21739844,9.24139453 9.24147656,8.21731641 10.5,8.21731641 C10.8795996,8.21731641 11.232334,8.31932227 11.5476621,8.48391797 L14.5079238,5.52365625 C13.5533672,4.75264453 12.4078418,4.27891406 11.1847559,4.14979688 L11.1847559,4.79337305 C11.1847559,5.17166016 10.878,5.47816992 10.499959,5.47816992 C10.121918,5.47816992 9.81516211,5.17166016 9.81516211,4.79337305 L9.81516211,4.14979688 C8.59207617,4.27891406 7.44655078,4.75260352 6.49199414,5.52361523 L6.94899023,5.9805293 C7.21645312,6.24778711 7.21645312,6.68156836 6.94899023,6.94886719 C6.81523828,7.08261914 6.64001953,7.14951563 6.4648418,7.14951563 C6.28966406,7.14951563 6.1144043,7.08261914 5.98069336,6.94886719 L5.52369727,6.49195313 C4.75268555,7.44650977 4.27891406,8.59203516 4.14983789,9.81512109 L4.79341406,9.81512109 C5.17145508,9.81512109 5.47821094,10.1216309 5.47821094,10.499918 C5.47821094,10.8782051 5.17145508,11.1847148 4.79341406,11.1847148 L4.15201172,11.1847148 C4.28121094,12.4078008 4.75096289,13.5549258 5.52189258,14.5094414 L5.98065234,14.0509277 C6.24811523,13.7834648 6.68148633,13.7834648 6.94899023,14.0509277 C7.21645312,14.3181855 7.21645312,14.7519668 6.94899023,15.0192656 L5.98065234,15.9876035 C5.71318945,16.2550664 5.27981836,16.2550664 5.01231445,15.9876035 C2.00455664,12.9798457 1.96132617,8.06334375 5.01231445,5.01235547 C8.03930859,1.98495117 12.9620859,1.98646875 15.9875625,5.01235547 C18.9960586,8.02081055 19.0378125,12.9374355 15.9876035,15.9876035 Z M10.5,9.58695117 C9.99669727,9.58695117 9.58695117,9.99645117 9.58695117,10.5 C9.58695117,11.0035488 9.99669727,11.4130488 10.5,11.4130488 C11.0033027,11.4130488 11.4130488,11.0035488 11.4130488,10.5 C11.4130488,9.99645117 11.0033027,9.58695117 10.5,9.58695117 Z"></path>
        </g>
    </g>
</svg>