<?xml version="1.0" encoding="UTF-8"?>
<svg width="16px" height="16px" viewBox="0 0 16 16" version="1.1" xmlns="http://www.w3.org/2000/svg" xmlns:xlink="http://www.w3.org/1999/xlink">
    <!-- Generator: Sketch 47.1 (45422) - http://www.bohemiancoding.com/sketch -->
    <title>icons/search/2</title>
    <desc>Created with Sketch.</desc>
    <defs></defs>
    <g id="Symbols" stroke="none" stroke-width="1" fill="none" fill-rule="evenodd">
        <g id="icons/search/2" fill="#1F1D2A" fill-rule="nonzero">
            <path d="M11.7489008,10.3346872 L14.9497475,13.5355339 C15.3402718,13.9260582 15.3402718,14.5592232 14.9497475,14.9497475 C14.5592232,15.3402718 13.9260582,15.3402718 13.5355339,14.9497475 L10.3346872,11.7489008 C9.2597335,12.5355664 7.9341039,13 6.5,13 C2.91014913,13 0,10.0898509 0,6.5 C0,2.91014913 2.91014913,0 6.5,0 C10.0898509,0 13,2.91014913 13,6.5 C13,7.9341039 12.5355664,9.2597335 11.7489008,10.3346872 L11.7489008,10.3346872 Z M6.5,11 C8.98528137,11 11,8.98528137 11,6.5 C11,4.01471863 8.98528137,2 6.5,2 C4.01471863,2 2,4.01471863 2,6.5 C2,8.98528137 4.01471863,11 6.5,11 Z"></path>
        </g>
    </g>
</svg>