<?xml version="1.0" encoding="UTF-8"?>
<svg width="15px" height="20px" viewBox="0 0 15 20" version="1.1" xmlns="http://www.w3.org/2000/svg" xmlns:xlink="http://www.w3.org/1999/xlink">
    <!-- Generator: Sketch 47.1 (45422) - http://www.bohemiancoding.com/sketch -->
    <title>icons/weather/humidity</title>
    <desc>Created with Sketch.</desc>
    <defs></defs>
    <g id="Symbols" stroke="none" stroke-width="1" fill="none" fill-rule="evenodd">
        <g id="icons/weather/humidity" fill="#3284FF" fill-rule="nonzero">
            <path d="M14.9987891,12.3730859 C14.9985547,12.3592969 14.9981641,12.3457031 14.9979687,12.3319531 C14.9973437,12.3040625 14.9966016,12.2762109 14.9956641,12.2483594 C14.7998047,6.08335938 7.49996094,0 7.49996094,0 C7.49996094,0 0.200078125,6.08335938 0.0042578125,12.2484766 C0.0033984375,12.2764062 0.0025390625,12.3041797 0.0019140625,12.3321875 C0.001640625,12.3460156 0.001328125,12.3594922 0.00109375,12.3733203 C0.000390625,12.4155078 0,12.4577734 0,12.5001953 C0,12.5465234 0.000546875,12.5923828 0.0013671875,12.6384375 C0.0014453125,12.6423437 0.001484375,12.6459766 0.001640625,12.6498828 C0.0812890625,16.7226953 3.4078125,20 7.49996094,20 C11.5921094,20 14.9185938,16.7226953 14.9983984,12.6496875 C14.9984766,12.6458594 14.9985547,12.6420312 14.9985547,12.6382422 C14.999375,12.5922266 15,12.5461719 15,12.5 C15,12.4575781 14.9994531,12.4153125 14.9987891,12.3730859 Z M11.9991465,12.1726155 L11.99901,12.1804158 C11.976547,13.473162 11.5119245,14.6844847 10.6911029,15.5915165 C9.86929122,16.4998164 8.78219072,17 7.63026157,17 C7.41754573,17 7.20704888,16.9828238 7,16.9493169 C9.37353461,15.357621 10.9636973,12.4400179 10.9636973,9.10434634 C10.9636973,8.73054393 10.9435557,8.36208266 10.9047404,8 C11.5921837,9.42058748 11.9640865,10.743536 11.9972348,11.912168 L11.9973031,11.9149347 C11.9978493,11.9331483 11.9981565,11.9512851 11.9986345,11.9695756 L11.9991124,11.9973956 C11.9995903,12.0254077 12,12.0534967 12,12.0815473 C12,12.1119802 11.9995903,12.1422978 11.9991465,12.1726155 Z"></path>
        </g>
    </g>
</svg>