<?xml version="1.0" encoding="UTF-8"?>
<svg width="19px" height="20px" viewBox="0 0 19 20" version="1.1" xmlns="http://www.w3.org/2000/svg" xmlns:xlink="http://www.w3.org/1999/xlink">
    <!-- Generator: Sketch 47.1 (45422) - http://www.bohemiancoding.com/sketch -->
    <title>icons/weather/wind</title>
    <desc>Created with Sketch.</desc>
    <defs></defs>
    <g id="Symbols" stroke="none" stroke-width="1" fill="none" fill-rule="evenodd">
        <g id="icons/weather/wind" fill="#8A6DF7" fill-rule="nonzero">
            <path d="M0.848566103,10.5549504 C0.379904743,10.5549504 0,10.1750142 0,9.70635289 C0,9.23772298 0.379904743,8.85778678 0.848566103,8.85778678 L14.5992999,8.85778678 C15.657114,8.85778678 16.5176317,7.99726905 16.5176317,6.93951788 C16.5176317,5.88182961 15.657051,5.02131187 14.5992999,5.02131187 C14.5886063,5.02131187 14.5896128,5.02143768 14.5816869,5.02118606 C14.5252312,5.02175219 13.819267,5.03798126 13.3654508,5.48868371 C13.0742712,5.77781893 12.9265427,6.21921169 12.9265427,6.80050149 C12.9265427,7.2691314 12.5467009,7.64906759 12.0780395,7.64906759 C11.6093467,7.64906759 11.2294734,7.26916285 11.2294734,6.80050149 C11.2294734,5.73913337 11.5522305,4.88616404 12.1889381,4.26540239 C13.1392818,3.33880469 14.4119737,3.32119176 14.6079805,3.32414821 C16.5976133,3.32886596 18.2147639,4.94891012 18.2147639,6.93951788 C18.2147639,8.93305064 16.5929584,10.5549504 14.5993313,10.5549504 L0.848566103,10.5549504 Z M0.848566103,7.23098052 C0.379904743,7.23098052 0,6.85113868 0,6.38244587 C0,5.91375305 0.379904743,5.53381686 0.848566103,5.53381686 L7.40284287,5.53381686 C8.46059404,5.53381686 9.32111178,4.67329912 9.32111178,3.61554795 C9.32111178,2.55785968 8.46053114,1.69734195 7.40284287,1.69734195 C7.3920864,1.69734195 7.39315576,1.69746775 7.38522994,1.69721614 C7.32858548,1.69778227 6.62262125,1.71413714 6.16886799,2.16477669 C5.87768841,2.45391191 5.72995991,2.89530467 5.72995991,3.47659447 C5.72995991,3.94528728 5.35014952,4.32522347 4.88145671,4.32522347 C4.4127639,4.32522347 4.0328906,3.94525583 4.0328906,3.47659447 C4.0328906,2.41522635 4.35571056,1.56225702 4.9923553,0.941432467 C5.9424474,0.0150863805 7.21312639,-0.00258945905 7.41146063,0.000178288064 C9.40115629,0.00470732879 11.018244,1.62481439 11.018244,3.61554795 C11.018244,5.60908071 9.39637563,7.23098052 7.40287433,7.23098052 L0.848566103,7.23098052 Z M14.5993313,12.0174532 C16.5929584,12.0174532 18.2147953,13.6392901 18.2147953,15.6328543 C18.2147953,17.623462 16.5976447,19.2435062 14.608012,19.248224 C14.6000862,19.2483498 14.590462,19.2484127 14.5791079,19.2484127 C14.3090324,19.2484756 13.1010366,19.1963287 12.1889696,18.3069698 C11.5522619,17.6862081 11.2295049,16.8332388 11.2295049,15.7718078 C11.2295049,15.303115 11.6094096,14.9231788 12.078071,14.9231788 C12.5467323,14.9231788 12.9265742,15.3031464 12.9265742,15.7718078 C12.9265742,16.3531605 13.0743027,16.7945532 13.3654822,17.0836885 C13.8192355,17.534328 14.5251997,17.55062 14.5817184,17.5511861 C14.5896442,17.5508716 14.5886692,17.5510603 14.5993313,17.5510603 C15.6571454,17.5510603 16.5176631,16.6905426 16.5176631,15.6327914 C16.5176631,14.5751031 15.6570825,13.7145854 14.5993313,13.7145854 L0.848566103,13.7145854 C0.379873291,13.7145854 0,13.3346177 0,12.8660193 C0,12.3973894 0.379904743,12.0174532 0.848566103,12.0174532 L14.5993313,12.0174532 Z"></path>
        </g>
    </g>
</svg>