<?xml version="1.0" encoding="UTF-8"?>
<svg width="17px" height="23px" viewBox="0 0 17 23" version="1.1" xmlns="http://www.w3.org/2000/svg" xmlns:xlink="http://www.w3.org/1999/xlink">
    <!-- Generator: Sketch 47.1 (45422) - http://www.bohemiancoding.com/sketch -->
    <title>icons/weather/temperature </title>
    <desc>Created with Sketch.</desc>
    <defs></defs>
    <g id="Symbols" stroke="none" stroke-width="1" fill="none" fill-rule="evenodd">
        <g id="icons/weather/temperature-" fill="#FFA124" fill-rule="nonzero">
            <path d="M9.82339841,4.23737865 C9.82339841,1.90062918 7.92973125,0 5.59347906,0 C3.25722687,0 1.36355971,1.90112646 1.36355971,4.23737865 L1.36355971,13.7559404 C0.472919504,14.7689131 0,16.0534043 0,17.4070182 C0,20.4911894 2.50532961,23 5.58900348,23 C8.67367192,23 11.181488,20.4911894 11.181488,17.4070182 C11.181488,16.0558907 10.7145359,14.7713995 9.8238957,13.7564377 L9.8238957,4.23737865 L9.82339841,4.23737865 Z M5.58552248,21.4972001 C3.33082528,21.4972001 1.4968325,19.6632073 1.4968325,17.4075155 C1.4968325,16.3403386 1.90062918,15.3333333 2.6390997,14.5704958 C2.77485892,14.430261 2.84796004,14.2427839 2.84796004,14.0478476 L2.84796004,4.23737865 C2.84796004,2.73010313 4.06780394,1.50329723 5.57507946,1.50329723 C7.08235498,1.50329723 8.30170158,2.73010313 8.30170158,4.23737865 L8.30170158,14.0478476 C8.30170158,14.2427839 8.3862403,14.430261 8.52199952,14.5695012 C9.25997276,15.3358198 9.67172602,16.3433223 9.67172602,17.4075155 C9.67122873,19.6622127 7.84121424,21.4972001 5.58552248,21.4972001 Z M6.85459774,15.0091025 C7.67114225,15.4566604 8.24600549,16.335863 8.24550821,17.3468466 C8.24550821,18.8113554 7.05003135,19.9988757 5.58552248,19.9988757 C4.12051631,19.9988757 2.93299604,18.8118527 2.93299604,17.3468466 C2.93299604,16.335863 3.51531859,15.4561631 4.33186309,15.0091025 L4.33186309,11.5624095 C4.33186309,10.8701866 4.9007589,10.3092474 5.59298177,10.3092474 C6.28520464,10.3092474 6.85459774,10.8701866 6.85459774,11.5624095 L6.85459774,15.0091025 Z M12.2068928,2.80419883 C11.7916586,2.80419883 11.4554929,2.45858468 11.4549956,2.04335041 C11.4549956,1.62811615 11.7916586,1.282502 12.2068928,1.282502 L15.7152494,1.282502 C16.130981,1.282502 16.4681412,1.62811615 16.4681412,2.04335041 C16.4681412,2.45908197 16.130981,2.80419883 15.7152494,2.80419883 L12.2068928,2.80419883 Z M15.7147521,4.80726903 C16.1304837,4.80726903 16.4671467,5.13398629 16.4676439,5.54922056 C16.4676439,5.96495211 16.1304837,6.29166937 15.7147521,6.29166937 L12.2063955,6.29166937 C11.7911613,6.29166937 11.4544983,5.96495211 11.4544983,5.54922056 C11.4544983,5.13398629 11.7911613,4.80726903 12.2063955,4.80726903 L15.7147521,4.80726903 Z M15.7147521,8.29523686 C16.1304837,8.29523686 16.4676439,8.64035372 16.4676439,9.05558799 C16.4676439,9.47082225 16.1304837,9.81593911 15.7147521,9.81593911 L12.2063955,9.81593911 C11.7911613,9.81593911 11.4544983,9.47082225 11.4544983,9.05558799 C11.4544983,8.64035372 11.7911613,8.29523686 12.2063955,8.29523686 L15.7147521,8.29523686 Z M15.7147521,11.8200039 C16.1304837,11.8200039 16.4671467,12.1472184 16.4676439,12.5624527 C16.4676439,12.9781843 16.1304837,13.3044042 15.7147521,13.3044042 L12.2063955,13.3044042 C11.7911613,13.3044042 11.4544983,12.9781843 11.4544983,12.5624527 C11.4544983,12.1472184 11.7911613,11.8200039 12.2063955,11.8200039 L15.7147521,11.8200039 Z"></path>
        </g>
    </g>
</svg>