<svg xmlns="http://www.w3.org/2000/svg" xmlns:xlink="http://www.w3.org/1999/xlink" width="13" height="13" viewBox="0 0 13 13"><defs><path id="a" d="M12.78 12.81a.71.71 0 0 1-.49.19.71.71 0 0 1-.51-.21L8.55 9.55c-.92.62-1.99.95-3.11.95-3 0-5.44-2.36-5.44-5.25C0 2.35 2.44 0 5.44 0a5.35 5.35 0 0 1 5.43 5.25c0 1.24-.45 2.43-1.27 3.37l3.2 3.22c.27.27.26.71-.02.97zM1.42 5.25c0 2.14 1.8 3.88 4.02 3.88a3.95 3.95 0 0 0 4.01-3.88c0-2.14-1.8-3.88-4.01-3.88a3.95 3.95 0 0 0-4.02 3.88z"/></defs><g><use fill="#73717c" xlink:href="#a"/></g></svg>