<?xml version="1.0" encoding="UTF-8"?>
<svg width="110px" height="29px" viewBox="0 0 110 29" version="1.1" xmlns="http://www.w3.org/2000/svg" xmlns:xlink="http://www.w3.org/1999/xlink">
    <!-- Generator: Sketch 47.1 (45422) - http://www.bohemiancoding.com/sketch -->
    <title>Logotype</title>
    <desc>Created with Sketch.</desc>
    <defs></defs>
    <g id="Symbols" stroke="none" stroke-width="1" fill="none" fill-rule="evenodd">
        <g id="general/header" transform="translate(-19.000000, -10.000000)" fill="#FFFFFF">
            <g id="Logotype">
                <g transform="translate(19.000000, 10.000000)">
                    <path d="M12,8.94015388 L20.0847579,8.65118609 L14.7942206,11.0834016 L9.50368323,29.0810533 L12,8.94015388 Z M9.34845686,23.6536529 L8.08680044,7.73207364 L0.0382946785,0.046567121 L16.1353062,7.73207364 L11.1820761,7.84324369 L9.34845686,23.6536529 Z M12,4 C10.8954305,4 10,3.1045695 10,2 C10,0.8954305 10.8954305,0 12,0 C13.1045695,0 14,0.8954305 14,2 C14,3.1045695 13.1045695,4 12,4 Z" id="Combined-Shape"></path>
                    <path d="M27.68,21 L27.68,6.447 L37.424,6.447 L37.424,9.198 L30.956,9.198 L30.956,12.243 L36.71,12.243 L36.71,14.994 L30.956,14.994 L30.956,21 L27.68,21 Z M47.733,20.622 C47.2009973,20.7760008 46.5150042,20.9194993 45.675,21.0525 C44.8349958,21.1855007 43.9530046,21.252 43.029,21.252 C42.0909953,21.252 41.3105031,21.1260013 40.6875,20.874 C40.0644969,20.6219987 39.5710018,20.2685023 39.207,19.8135 C38.8429982,19.3584977 38.5840008,18.8160032 38.43,18.186 C38.2759992,17.5559969 38.199,16.8630038 38.199,16.107 L38.199,9.954 L41.328,9.954 L41.328,15.729 C41.328,16.737005 41.4609987,17.4649978 41.727,17.913 C41.9930013,18.3610022 42.4899963,18.585 43.218,18.585 C43.4420011,18.585 43.6799987,18.5745001 43.932,18.5535 C44.1840012,18.5324999 44.407999,18.5080001 44.604,18.48 L44.604,9.954 L47.733,9.954 L47.733,20.622 Z M53.044,18.753 C53.6180028,18.753 54.0239988,18.6970006 54.262,18.585 C54.5000012,18.4729994 54.619,18.2560016 54.619,17.934 C54.619,17.6819987 54.4650015,17.4615009 54.157,17.2725 C53.8489984,17.0834991 53.3800031,16.8700012 52.75,16.632 C52.2599975,16.4499991 51.815502,16.261001 51.4165,16.065 C51.017498,15.868999 50.6780014,15.6345014 50.398,15.3615 C50.1179986,15.0884986 49.9010007,14.7630019 49.747,14.385 C49.5929992,14.0069981 49.516,13.5520027 49.516,13.02 C49.516,11.9839948 49.9009961,11.165003 50.671,10.563 C51.4410038,9.96099699 52.4979933,9.66 53.842,9.66 C54.5140033,9.66 55.1579969,9.71949941 55.774,9.8385 C56.3900031,9.9575006 56.8799982,10.0869993 57.244,10.227 L56.698,12.663 C56.3339982,12.5369994 55.9385021,12.4250005 55.5115,12.327 C55.0844978,12.2289995 54.6050026,12.18 54.073,12.18 C53.0929951,12.18 52.603,12.4529973 52.603,12.999 C52.603,13.1250006 52.6239998,13.2369995 52.666,13.335 C52.7080002,13.4330005 52.7919993,13.5274995 52.918,13.6185 C53.0440006,13.7095005 53.2154989,13.8074995 53.4325,13.9125 C53.6495011,14.0175005 53.9259983,14.1329994 54.262,14.259 C54.9480034,14.5110013 55.5149977,14.7594988 55.963,15.0045 C56.4110022,15.2495012 56.7644987,15.5154986 57.0235,15.8025 C57.2825013,16.0895014 57.4644995,16.4079983 57.5695,16.758 C57.6745005,17.1080018 57.727,17.5139977 57.727,17.976 C57.727,19.0680055 57.3175041,19.8939972 56.4985,20.454 C55.6794959,21.0140028 54.5210075,21.294 53.023,21.294 C52.0429951,21.294 51.2275032,21.2100008 50.5765,21.042 C49.9254967,20.8739992 49.4740012,20.7340006 49.222,20.622 L49.747,18.081 C50.2790026,18.2910011 50.8249972,18.4554994 51.385,18.5745 C51.9450028,18.6935006 52.4979972,18.753 53.044,18.753 Z M58.733,15.561 C58.733,14.5809951 58.8834985,13.7235037 59.1845,12.9885 C59.4855015,12.2534963 59.8809975,11.6410025 60.371,11.151 C60.8610024,10.6609976 61.4244968,10.2900013 62.0615,10.038 C62.6985031,9.78599874 63.3529966,9.66 64.025,9.66 C65.5930078,9.66 66.8319954,10.1394952 67.742,11.0985 C68.6520045,12.0575048 69.107,13.4679907 69.107,15.33 C69.107,15.5120009 69.1,15.7114989 69.086,15.9285 C69.0719999,16.1455011 69.058,16.3379992 69.044,16.506 L61.946,16.506 C62.0160003,17.1500032 62.3169973,17.6609981 62.849,18.039 C63.3810026,18.4170019 64.0949955,18.606 64.991,18.606 C65.5650028,18.606 66.1284972,18.5535005 66.6815,18.4485 C67.2345027,18.3434995 67.6859982,18.2140008 68.036,18.06 L68.456,20.601 C68.2879991,20.6850004 68.0640014,20.7689996 67.784,20.853 C67.5039986,20.9370004 67.1925017,21.0104997 66.8495,21.0735 C66.5064982,21.1365003 66.1390019,21.1889998 65.747,21.231 C65.354998,21.2730002 64.9630019,21.294 64.571,21.294 C63.576995,21.294 62.7125036,21.1470015 61.9775,20.853 C61.2424963,20.5589985 60.6335024,20.1565026 60.1505,19.6455 C59.6674975,19.1344974 59.3105011,18.5290035 59.0795,17.829 C58.8484988,17.1289965 58.733,16.3730041 58.733,15.561 Z M66.083,14.364 C66.0689999,14.0979987 66.0235003,13.8390013 65.9465,13.587 C65.8694996,13.3349987 65.7505008,13.111001 65.5895,12.915 C65.4284992,12.718999 65.2255012,12.5580006 64.9805,12.432 C64.7354987,12.3059994 64.4310018,12.243 64.067,12.243 C63.7169982,12.243 63.4160012,12.3024994 63.164,12.4215 C62.9119987,12.5405006 62.7020008,12.697999 62.534,12.894 C62.3659991,13.090001 62.2365004,13.3174987 62.1455,13.5765 C62.0544995,13.8355013 61.9880002,14.0979987 61.946,14.364 L66.083,14.364 Z M74.796,6.447 C75.0480012,6.90900231 75.3384983,7.47949661 75.6675,8.1585 C75.9965016,8.8375034 76.3394982,9.57249605 76.6965,10.3635 C77.0535017,11.154504 77.4069982,11.9629959 77.757,12.789 C78.1070017,13.6150041 78.4359984,14.3919964 78.744,15.12 C79.0520015,14.3919964 79.3809982,13.6150041 79.731,12.789 C80.0810017,11.9629959 80.4344982,11.154504 80.7915,10.3635 C81.1485017,9.57249605 81.4914983,8.8375034 81.8205,8.1585 C82.1495016,7.47949661 82.4399987,6.90900231 82.692,6.447 L85.674,6.447 C85.8140007,7.41300483 85.9434994,8.49449402 86.0625,9.6915 C86.1815005,10.888506 86.2864995,12.1344935 86.3775,13.4295 C86.4685004,14.7245065 86.5524996,16.0229935 86.6295,17.325 C86.7065003,18.6270065 86.7729997,19.8519943 86.829,21 L83.637,21 C83.5949997,19.5859929 83.5390003,18.0460083 83.469,16.38 C83.3989996,14.7139917 83.2940007,13.0340085 83.154,11.34 C82.9019987,11.9280029 82.6220015,12.5789964 82.314,13.293 C82.0059984,14.0070036 81.7015015,14.7209964 81.4005,15.435 C81.0994984,16.1490036 80.8090014,16.8314967 80.529,17.4825 C80.2489986,18.1335033 80.0110009,18.6899977 79.815,19.152 L77.526,19.152 C77.329999,18.6899977 77.0920014,18.1335033 76.812,17.4825 C76.5319986,16.8314967 76.2415015,16.1490036 75.9405,15.435 C75.6394984,14.7209964 75.3350015,14.0070036 75.027,13.293 C74.7189984,12.5789964 74.4390012,11.9280029 74.187,11.34 C74.0469993,13.0340085 73.9420003,14.7139917 73.872,16.38 C73.8019996,18.0460083 73.7460002,19.5859929 73.704,21 L70.512,21 C70.5680002,19.8519943 70.6344996,18.6270065 70.7115,17.325 C70.7885003,16.0229935 70.8724995,14.7245065 70.9635,13.4295 C71.0545004,12.1344935 71.1594994,10.888506 71.2785,9.6915 C71.3975005,8.49449402 71.5269993,7.41300483 71.667,6.447 L74.796,6.447 Z M92.9799999,18.816 C93.2880015,18.816 93.5819985,18.8090001 93.8619999,18.795 C94.1420013,18.7809999 94.3659991,18.7600001 94.5339999,18.732 L94.5339999,16.359 C94.4079993,16.3309999 94.2190012,16.3030001 93.9669999,16.275 C93.7149987,16.2469999 93.484001,16.233 93.2739999,16.233 C92.9799985,16.233 92.7035012,16.2504998 92.4444999,16.2855 C92.1854986,16.3205002 91.9580009,16.3869995 91.7619999,16.485 C91.565999,16.5830005 91.4120005,16.7159992 91.2999999,16.884 C91.1879994,17.0520008 91.1319999,17.2619987 91.1319999,17.514 C91.1319999,18.0040025 91.2964983,18.3434991 91.6254999,18.5325 C91.9545016,18.7215009 92.4059971,18.816 92.9799999,18.816 Z M92.7279999,9.66 C93.6520046,9.66 94.4219969,9.76499895 95.0379999,9.975 C95.654003,10.1850011 96.1474981,10.485998 96.5184999,10.878 C96.8895018,11.270002 97.1519992,11.7459972 97.3059999,12.306 C97.4600007,12.8660028 97.5369999,13.4889966 97.5369999,14.175 L97.5369999,20.685 C97.0889977,20.7830005 96.4660039,20.8984993 95.6679999,21.0315 C94.869996,21.1645007 93.9040056,21.231 92.7699999,21.231 C92.0559964,21.231 91.4085028,21.1680006 90.8274999,21.042 C90.246497,20.9159994 89.746002,20.7095014 89.3259999,20.4225 C88.9059978,20.1354986 88.5840011,19.7610023 88.3599999,19.299 C88.1359988,18.8369977 88.0239999,18.2700034 88.0239999,17.598 C88.0239999,16.9539968 88.1534986,16.4080022 88.4124999,15.96 C88.6715012,15.5119978 89.0179978,15.1550013 89.4519999,14.889 C89.8860021,14.6229987 90.3829971,14.4305006 90.9429999,14.3115 C91.5030027,14.1924994 92.0839969,14.133 92.6859999,14.133 C93.092002,14.133 93.4524984,14.1504998 93.7674999,14.1855 C94.0825015,14.2205002 94.337999,14.2659997 94.5339999,14.322 L94.5339999,14.028 C94.5339999,13.4959973 94.3730016,13.0690016 94.0509999,12.747 C93.7289983,12.4249984 93.1690039,12.264 92.3709999,12.264 C91.8389973,12.264 91.3140025,12.3024996 90.7959999,12.3795 C90.2779974,12.4565004 89.8300018,12.5649993 89.4519999,12.705 L89.0529999,10.185 C89.2350009,10.1289997 89.4624986,10.0695003 89.7354999,10.0065 C90.0085013,9.94349969 90.3059983,9.88750025 90.6279999,9.8385 C90.9500016,9.78949976 91.2894982,9.74750018 91.6464999,9.7125 C92.0035017,9.67749983 92.3639981,9.66 92.7279999,9.66 Z M106.649,15.561 C106.649,14.5949952 106.432002,13.8215029 105.998,13.2405 C105.563998,12.6594971 104.920004,12.369 104.066,12.369 C103.785999,12.369 103.527001,12.3794999 103.289,12.4005 C103.050999,12.4215001 102.855001,12.4459999 102.701,12.474 L102.701,18.123 C102.897001,18.2490006 103.152498,18.3539996 103.4675,18.438 C103.782502,18.5220004 104.100998,18.564 104.423,18.564 C105.907007,18.564 106.649,17.56301 106.649,15.561 Z M109.841,15.477 C109.841,16.3310043 109.736001,17.1079965 109.526,17.808 C109.315999,18.5080035 109.008002,19.1099975 108.602,19.614 C108.195998,20.1180025 107.692003,20.5099986 107.09,20.79 C106.487997,21.0700014 105.795004,21.21 105.011,21.21 C104.576998,21.21 104.171002,21.1680004 103.793,21.084 C103.414998,20.9999996 103.051002,20.8810008 102.701,20.727 L102.701,24.885 L99.5719999,24.885 L99.5719999,10.332 C99.8520013,10.2479996 100.173998,10.1675004 100.538,10.0905 C100.902002,10.0134996 101.283498,9.94700028 101.6825,9.891 C102.081502,9.83499972 102.487498,9.78950018 102.9005,9.7545 C103.313502,9.71949983 103.708998,9.702 104.087,9.702 C104.997004,9.702 105.808996,9.83849864 106.523,10.1115 C107.237003,10.3845014 107.838997,10.7694975 108.329,11.2665 C108.819002,11.7635025 109.193499,12.3689964 109.4525,13.083 C109.711501,13.7970036 109.841,14.5949956 109.841,15.477 Z" id="FuseMap"></path>
                </g>
            </g>
        </g>
    </g>
</svg>