<?xml version="1.0" encoding="UTF-8"?>
<svg width="17px" height="16px" viewBox="0 0 17 16" version="1.1" xmlns="http://www.w3.org/2000/svg" xmlns:xlink="http://www.w3.org/1999/xlink">
    <!-- Generator: Sketch 47.1 (45422) - http://www.bohemiancoding.com/sketch -->
    <title>icons/line/comment</title>
    <desc>Created with Sketch.</desc>
    <defs></defs>
    <g id="Symbols" stroke="none" stroke-width="1" fill="none" fill-rule="evenodd">
        <g id="icons/line/comment" fill="#74717D" fill-rule="nonzero">
            <path d="M5.69774529,14.2408102 L15.2946025,4.64395292 C16.0756511,3.86290433 16.0756511,2.59657437 15.2946025,1.81552579 C14.513554,1.03447721 13.247224,1.03447721 12.4661754,1.81552579 L2.82802679,11.4536744 L2.17500771,14.5930006 L5.69774529,14.2408102 Z M16.0017093,1.10841901 C17.1732822,2.27999189 17.1732822,4.17948682 16.0017093,5.3510597 L6.15243151,15.2003375 L0.918420324,15.7236148 L1.90979082,10.9576968 L11.7590686,1.10841901 C12.9306415,-0.0631538651 14.8301364,-0.0631538651 16.0017093,1.10841901 Z M11,2.70710678 L11.7071068,2 L15.2426407,5.53553391 L14.5355339,6.24264069 L11,2.70710678 Z M2,11.7071068 L2.70710678,11 C4.38166953,11.4338082 5.70573557,12.7145797 6.19495401,14.3738009 L6.24264069,14.5355339 L5.53553391,15.2426407 C5.06286089,13.5290313 3.7263829,12.1886816 2.01414805,11.7110534 L2,11.7071068 Z"></path>
        </g>
    </g>
</svg>