<?xml version="1.0" encoding="UTF-8"?>
<svg width="48px" height="48px" viewBox="0 0 48 48" version="1.1" xmlns="http://www.w3.org/2000/svg" xmlns:xlink="http://www.w3.org/1999/xlink">
    <!-- Generator: Sketch 47.1 (45422) - http://www.bohemiancoding.com/sketch -->
    <title>icons/suggestions/1</title>
    <desc>Created with Sketch.</desc>
    <defs></defs>
    <g id="Symbols" stroke="none" stroke-width="1" fill="none" fill-rule="evenodd">
        <g id="icons/suggestions/1" fill="#ffa124">
            <path d="M3.42857143,0.979591837 C2.07603735,0.979591837 0.979591837,2.07603735 0.979591837,3.42857143 L0.979591837,44.5714286 C0.979591837,45.9239627 2.07603735,47.0204082 3.42857143,47.0204082 L44.5714286,47.0204082 C45.9239627,47.0204082 47.0204082,45.9239627 47.0204082,44.5714286 L47.0204082,3.42857143 C47.0204082,2.07603735 45.9239627,0.979591837 44.5714286,0.979591837 L3.42857143,0.979591837 Z M3.42857143,0 L44.5714286,0 C46.4649763,-3.26269624e-16 48,1.53502371 48,3.42857143 L48,44.5714286 C48,46.4649763 46.4649763,48 44.5714286,48 L3.42857143,48 C1.53502371,48 2.17513082e-16,46.4649763 0,44.5714286 L0,3.42857143 C-2.17513082e-16,1.53502371 1.53502371,3.26269624e-16 3.42857143,0 Z" fill-rule="nonzero"></path>
            <path d="M36.0950661,25.511659 C36.0950661,24.8904163 35.5900271,24.3853772 34.9687844,24.3853772 L31.6569796,24.3853772 C28.8814996,24.3853772 26.6334054,26.629002 26.6199973,29.4000127 C26.6155279,30.8436199 25.5920417,32.1263297 24.1618426,32.3051046 C22.4456038,32.5196344 20.9796497,31.1788228 20.9796497,29.5072777 L20.9796497,26.9865518 C23.554008,26.4636353 25.4937155,24.1887249 25.4937155,21.4579385 L25.4937155,18.5975404 C25.4937155,18.1908275 25.1674514,17.8645634 24.7607385,17.8645634 L23.361825,17.8645634 L23.361825,14.32929 C23.361825,13.7750879 22.9595816,13.283457 22.4098488,13.2298245 C21.7796673,13.1672533 21.247812,13.6633536 21.247812,14.2845963 L21.247812,17.8645634 L18.4589239,17.8645634 L18.4589239,14.32929 C18.4589239,13.7750879 18.0566804,13.283457 17.5024782,13.2298245 C16.8722968,13.1717227 16.3404415,13.6633536 16.3404415,14.2845963 L16.3404415,17.8645634 L14.9370587,17.8645634 C14.5303458,17.8645634 14.2040816,18.1908275 14.2040816,18.5975404 L14.2040816,21.4579385 C14.2040816,24.1887249 16.1437891,26.4636353 18.7181474,26.9865518 L18.7181474,29.3776659 C18.7181474,32.1263297 20.8500379,34.47275 23.5987018,34.5755456 C26.4859161,34.6828105 28.8725608,32.3676758 28.8725608,29.5028083 L28.8725608,29.4625839 C28.8725608,27.9027731 30.1373931,26.6424101 31.6927346,26.6424101 L34.964315,26.6424101 C35.5900271,26.6379408 36.0950661,26.1329017 36.0950661,25.511659 L36.0950661,25.511659 Z" id="Shape"></path>
        </g>
    </g>
</svg>