<svg xmlns="http://www.w3.org/2000/svg" xmlns:xlink="http://www.w3.org/1999/xlink" width="48" height="48" viewBox="0 0 48 48"><defs><path id="a" d="M104.43 518.98a2.45 2.45 0 0 0-2.45 2.45v41.14c0 1.35 1.1 2.45 2.45 2.45h41.14c1.35 0 2.45-1.1 2.45-2.45v-41.14c0-1.35-1.1-2.45-2.45-2.45zm0-.98h41.14a3.44 3.44 0 0 1 3.43 3.43v41.14a3.44 3.44 0 0 1-3.43 3.43h-41.14a3.44 3.44 0 0 1-3.43-3.43v-41.14a3.44 3.44 0 0 1 3.43-3.43zm23.94 29.47v5.36h3.59a.8.8 0 0 1 .81.81v.29c0 .44-.36.81-.81.81h-9.98a.81.81 0 0 1-.81-.81v-.29a.8.8 0 0 1 .81-.81h3.59v-5.36h-2.62a3.48 3.48 0 0 1-3.15-2.19l-4.59-12.07a3.24 3.24 0 0 1 3.01-4.38c1.34 0 2.56.83 3.03 2.08l2 5.25h1.12a8.8 8.8 0 0 1 7.86 4.85h.38a3.23 3.23 0 1 1 0 6.46zm-4.99-10.26l1.23 3.23h5.27a7.17 7.17 0 0 0-5.99-3.23z"/></defs><g transform="translate(-101 -518)"><use fill="#3284ff" xlink:href="#a"/></g></svg>