<?xml version="1.0" encoding="UTF-8"?>
<svg width="16px" height="16px" viewBox="0 0 16 16" version="1.1" xmlns="http://www.w3.org/2000/svg" xmlns:xlink="http://www.w3.org/1999/xlink">
    <!-- Generator: Sketch 47.1 (45422) - http://www.bohemiancoding.com/sketch -->
    <title>icons/line/plug</title>
    <desc>Created with Sketch.</desc>
    <defs></defs>
    <g id="Symbols" stroke="none" stroke-width="1" fill="none" fill-rule="evenodd">
        <g id="icons/line/plug" fill="#74717D" fill-rule="nonzero">
            <path d="M3,0 L13,0 C14.6568542,0 16,1.34314575 16,3 L16,13 C16,14.6568542 14.6568542,16 13,16 L3,16 C1.34314575,16 0,14.6568542 0,13 L0,3 C0,1.34314575 1.34314575,0 3,0 Z M3,1 C1.8954305,1 1,1.8954305 1,3 L1,13 C1,14.1045695 1.8954305,15 3,15 L13,15 C14.1045695,15 15,14.1045695 15,13 L15,3 C15,1.8954305 14.1045695,1 13,1 L3,1 Z M8,14 C4.6862915,14 2,11.3137085 2,8 C2,4.6862915 4.6862915,2 8,2 C11.3137085,2 14,4.6862915 14,8 C14,11.3137085 11.3137085,14 8,14 Z M8,13 C10.7614237,13 13,10.7614237 13,8 C13,5.23857625 10.7614237,3 8,3 C5.23857625,3 3,5.23857625 3,8 C3,10.7614237 5.23857625,13 8,13 Z M6,6 L7,6 L7,9 L6,9 L6,6 Z M9,6 L10,6 L10,9 L9,9 L9,6 Z M7,10 L9,10 L9,11 L7,11 L7,10 Z"></path>
        </g>
    </g>
</svg>